<!-- <svg viewBox="0 0 1536 200" xmlns="http://www.w3.org/2000/svg" xmlns:xlink="http://www.w3.org/1999/xlink"><path fill="rgba(88, 77, 98, 1)" d="M 0 0 C 233.7 0 545.3 110 779 110 L 779 110 L 779 0 L 0 0 Z" stroke-width="0"></path> <path fill="rgba(88, 77, 98, 1)" d="M 778 110 C 1002.4 110 1301.6 0 1526 0 L 1526 0 L 1526 0 L 778 0 Z" stroke-width="0"></path> </svg> -->
<!-- <svg viewBox="0 0 1536 200" xmlns="http://www.w3.org/2000/svg" xmlns:xlink="http://www.w3.org/1999/xlink"><path fill="rgb(36,5, 62)" d="M 0 0 C 233.7 0 545.3 110 779 110 L 779 110 L 779 0 L 0 0 Z" stroke-width="0"></path> <path fill="rgb(36,5, 62)" d="M 778 110 C 1002.4 110 1301.6 0 1526 0 L 1526 0 L 1526 0 L 778 0 Z" stroke-width="0"></path> </svg> -->
<svg viewBox="0 0 1526 178" xmlns="http://www.w3.org/2000/svg" xmlns:xlink="http://www.w3.org/1999/xlink"><path fill="rgb(36,5, 62)" d="M 0 64 C 233.7 64 545.3 110 779 110 L 779 110 L 779 0 L 0 0 Z" stroke-width="0"></path> <path fill="rgb(36,5, 62)" d="M 778 110 C 787.3 110 799.7 110 809 110 L 809 110 L 809 0 L 778 0 Z" stroke-width="0"></path> <path fill="rgb(36,5, 62)" d="M 808 110 C 1023.4 110 1310.6 64 1526 64 L 1526 64 L 1526 0 L 808 0 Z" stroke-width="0"></path></svg>